<svg width="107" height="107" viewBox="0 0 107 107" fill="none" xmlns="http://www.w3.org/2000/svg">
<g id="Group 406">
<circle id="Ellipse 69" cx="53.5" cy="53.5" r="53.5" fill="#EEEFF1"/>
<g id="Group 394">
<g id="Group 388">
<path id="Vector 6" d="M28.1426 40.8452L37.3973 31.409L41.571 28.1427L53.9106 25.9651L68.6092 28.8685L77.3195 40.8452L81.3117 56.2697L73.8717 68.7907L61.7136 79.8601L46.652 78.0454L31.5904 70.061L27.4167 54.818L28.1426 40.8452Z" fill="#FF7301" stroke="black" stroke-width="0.362929"/>
<path id="Polygon 1" d="M53.3661 8L61.538 27.8704H45.1941L53.3661 8Z" fill="#FF7301"/>
<path id="Polygon 2" d="M77.2539 15.3598L73.1704 36.4533L59.5119 27.4773L77.2539 15.3598Z" fill="#FF7301"/>
<path id="Polygon 3" d="M93.2044 34.4547L78.3713 50.1883L71.5812 34.5409L93.2044 34.4547Z" fill="#FF7301"/>
<path id="Polygon 4" d="M97.5991 58.3649L76.7951 63.7317L79.0387 47.5425L97.5991 58.3649Z" fill="#FF7301"/>
<path id="Polygon 5" d="M87.0199 81.2037L66.5226 74.7635L76.9842 62.2064L87.0199 81.2037Z" fill="#FF7301"/>
<path id="Polygon 6" d="M66.1572 95.253L52.523 78.6482L68.1499 73.8604L66.1572 95.253Z" fill="#FF7301"/>
<path id="Polygon 7" d="M40.5614 95.2717L38.9539 73.8468L54.4922 78.9148L40.5614 95.2717Z" fill="#FF7301"/>
<path id="Polygon 8" d="M20.0082 81.156L29.6145 61.938L40.3555 74.2569L20.0082 81.156Z" fill="#FF7301"/>
<path id="Polygon 9" d="M9.48853 58.8785L27.821 47.6744L30.3992 63.8137L9.48853 58.8785Z" fill="#FF7301"/>
<path id="Polygon 10" d="M13.2028 34.0793L34.6842 34.4798L28.1871 49.4768L13.2028 34.0793Z" fill="#FF7301"/>
<path id="Polygon 11" d="M29.8211 15.1339L47.2116 27.7507L33.3035 36.335L29.8211 15.1339Z" fill="#FF7301"/>
</g>
<path id="Vector 12" d="M40.1193 43.0227L48.8296 50.0998H37.2158" stroke="black" stroke-width="2.90343" stroke-linecap="round" stroke-linejoin="round"/>
<path id="Vector 13" d="M66.7946 43.0227L58.0843 50.0998H69.698" stroke="black" stroke-width="2.90343" stroke-linecap="round" stroke-linejoin="round"/>
<path id="Vector 14" d="M49.011 60.0803H57.7213" stroke="black" stroke-width="2.90343" stroke-linecap="round" stroke-linejoin="round"/>
</g>
</g>
</svg>
