<svg width="107" height="107" viewBox="0 0 107 107" fill="none" xmlns="http://www.w3.org/2000/svg">
<circle cx="53.5" cy="53.5" r="53.5" fill="#EEEFF1"/>
<path d="M53.1885 24C76.8404 24 96.377 43.1742 96.377 66.8262V72.71C96.377 73.4142 96.3584 74.1147 96.3242 74.8105H10.0527C10.0185 74.1147 10 73.4142 10 72.71V66.8262C10 43.1743 29.5366 24.0001 53.1885 24Z" fill="#3182F6"/>
<path d="M38.6714 58.6594C43.329 61.079 55.5476 64.4663 67.1613 58.6594" stroke="black" stroke-width="2.90343" stroke-linecap="round" stroke-linejoin="round"/>
<path d="M39.0344 49.4055C39.1554 47.8328 40.4498 44.7238 44.6598 44.8689C48.8698 45.0141 50.1643 47.8324 50.2852 49.2234" stroke="black" stroke-width="2.90343" stroke-linecap="round" stroke-linejoin="round"/>
<circle cx="60.4471" cy="47.9532" r="7.25858" fill="#FEFDFD"/>
<circle cx="60.4471" cy="47.9532" r="3.99222" fill="black"/>
</svg>
