<svg width="107" height="107" viewBox="0 0 107 107" fill="none" xmlns="http://www.w3.org/2000/svg">
<circle cx="53.5" cy="53.5" r="53.5" fill="#EEEFF1"/>
<circle cx="38.1465" cy="39.1426" r="18.1465" fill="#31CC66"/>
<circle cx="38.1465" cy="67.4511" r="18.1465" fill="#31CC66"/>
<circle cx="67.9065" cy="39.1426" r="18.1465" fill="#31CC66"/>
<circle cx="67.9065" cy="67.4511" r="18.1465" fill="#31CC66"/>
<circle cx="52.6635" cy="55.8374" r="18.1465" fill="#31CC66"/>
<circle cx="46.6751" cy="52.0291" r="9.25469" fill="white"/>
<path d="M43.7046 43.1372C45.4285 43.896 46.6322 45.6182 46.6323 47.6226C46.6323 50.3285 44.4389 52.522 41.7329 52.522C39.8697 52.5219 38.2498 51.482 37.4214 49.9507C38.1456 46.7107 40.5665 44.1111 43.7046 43.1372Z" fill="black"/>
<circle cx="62.6441" cy="52.0291" r="9.25469" fill="white"/>
<path d="M59.8975 43.1892C61.6213 43.9481 62.8252 45.6702 62.8252 47.6746C62.825 50.3803 60.6316 52.574 57.9258 52.574C56.0625 52.5739 54.4427 51.5331 53.6143 50.0017C54.3386 46.762 56.7596 44.1631 59.8975 43.1892Z" fill="black"/>
<ellipse cx="61.5554" cy="64.5498" rx="9.61762" ry="5.08101" fill="#31CC66"/>
<rect x="28.3474" y="46.5337" width="18.5094" height="9.07323" transform="rotate(-42.3522 28.3474 46.5337)" fill="#31CC66"/>
<rect x="35.9556" y="55.1135" width="18.5094" height="9.07323" transform="rotate(16.1726 35.9556 55.1135)" fill="#31CC66"/>
</svg>
