<svg width="171" height="55" viewBox="0 0 171 55" fill="none" xmlns="http://www.w3.org/2000/svg">
<rect width="170.846" height="54.4453" rx="15.0194" fill="#0066FF"/>
<path d="M46.8402 20.5453C46.8146 24.7548 49.3557 28.9644 52.9235 30.5558L51.4605 32.4809C48.8167 31.2232 46.7247 28.6435 45.6595 25.4992C44.5815 28.8617 42.4639 31.6467 39.7046 32.9942L38.2158 30.9408C41.835 29.3237 44.3761 24.9345 44.3761 20.5453V16.6181H46.8402V20.5453ZM57.4411 14.693V37.7428H55.0026V14.693H57.4411ZM69.9342 18.8256C69.9342 21.7517 71.9619 24.5495 75.4785 25.7302L74.2464 27.6297C71.6411 26.7313 69.7288 24.9345 68.7278 22.6757C67.7267 25.1655 65.7375 27.1163 63.0295 28.066L61.7205 26.1666C65.314 24.9345 67.4701 21.9827 67.4957 18.7999V18.1839H62.4392V16.2074H74.8881V18.1839H69.9342V18.8256ZM79.9703 14.693V20.5966H83.3072V22.6501H79.9703V28.5537H77.5319V14.693H79.9703ZM79.9703 29.6831V37.6915H77.5319V31.6595H64.7749V29.6831H79.9703ZM103.321 14.693V24.0105H107.017V26.0382H103.321V37.6915H100.908V14.693H103.321ZM98.9061 18.2865V20.2886H85.2764V18.2865H90.949V15.001H93.3875V18.2865H98.9061ZM92.1811 21.9827C95.4666 21.9827 97.8794 24.1902 97.905 27.3216C97.8794 30.4788 95.4666 32.6606 92.1811 32.6862C88.8699 32.6606 86.4571 30.4788 86.4571 27.3216C86.4571 24.1902 88.8699 21.9827 92.1811 21.9827ZM92.1811 23.9848C90.2303 23.9848 88.7672 25.3452 88.7929 27.3216C88.7672 29.3237 90.2303 30.6585 92.1811 30.6328C94.1318 30.6585 95.5692 29.3237 95.5692 27.3216C95.5692 25.3452 94.1318 23.9848 92.1811 23.9848ZM128.032 14.693V37.6915H125.568V14.693H128.032ZM121.179 17.1571C121.179 23.8821 118.304 29.7344 110.424 33.5076L109.14 31.5312C115.262 28.6179 118.24 24.4725 118.715 19.1079H110.244V17.1571H121.179Z" fill="white"/>
</svg>
